<?xml version="1.0" encoding="utf-8"?>
<!-- Generator: Adobe Illustrator 16.0.0, SVG Export Plug-In . SVG Version: 6.00 Build 0)  -->
<!DOCTYPE svg PUBLIC "-//W3C//DTD SVG 1.1//EN" "http://www.w3.org/Graphics/SVG/1.1/DTD/svg11.dtd">
<svg version="1.1" id="Layer_1" xmlns="http://www.w3.org/2000/svg" xmlns:xlink="http://www.w3.org/1999/xlink" x="0px" y="0px"
	 width="431px" height="431px" viewBox="-100.5 0 431 431" enable-background="new -100.5 0 431 431" xml:space="preserve">
<rect x="-100.5" fill="none" width="431" height="431"/>
<path fill="#E4E3EA" stroke="#FFFFFF" stroke-width="5" d="M185.14,169.333l-0.438,0.519l-0.068,0.675l-6.568,64.817l-0.559,5.496
	l4.172-3.623l16.641-14.451l0.371-0.324l0.197-0.447l-2.004-0.883c2.004,0.883,2.004,0.883,2.004,0.881h0.002l0.002-0.002
	l0.002-0.006l0.012-0.027l0.041-0.094c0.035-0.082,0.09-0.205,0.158-0.361c0.133-0.313,0.326-0.762,0.559-1.313
	c0.463-1.1,1.086-2.612,1.727-4.249c0.637-1.636,1.297-3.418,1.826-5.054c0.52-1.593,0.965-3.199,1.1-4.424
	c0.232-2.092,0.232-8.552,0.232-14.704v-0.318c0-3.178,0-6.313,0.027-8.845c0.027-2.613,0.088-4.381,0.17-4.969
	c0.15-1.054,0.652-2.216,1.273-3.661c0.072-0.161,0.143-0.326,0.215-0.495c0.328-0.769,0.682-1.625,0.918-2.462
	c0.229-0.819,0.41-1.839,0.201-2.881c-0.18-0.904-0.686-1.957-1.199-2.879c-0.549-0.985-1.242-2.054-1.971-3.053
	c-0.727-0.994-1.525-1.964-2.291-2.734c-0.381-0.384-0.789-0.751-1.207-1.052c-0.379-0.272-0.941-0.623-1.619-0.758
	c-0.979-0.196-1.848,0.184-2.279,0.398c-0.539,0.267-1.088,0.638-1.607,1.034c-1.053,0.797-2.254,1.899-3.447,3.076
	C189.335,164.528,186.772,167.405,185.14,169.333z"/>
<path fill="#E4E3EA" stroke="#FFFFFF" stroke-width="5" d="M28.688,178.289l-0.068-0.433l-0.229-0.373l-1.865,1.147
	c1.865-1.147,1.865-1.147,1.865-1.148h0l-0.002-0.001l-0.003-0.007l-0.016-0.026l-0.061-0.097c-0.053-0.085-0.13-0.209-0.229-0.368
	c-0.197-0.315-0.479-0.765-0.821-1.305c-0.684-1.077-1.612-2.519-2.585-3.963c-0.967-1.437-2.002-2.914-2.896-4.047
	c-0.441-0.56-0.89-1.088-1.305-1.497c-0.205-0.201-0.454-0.425-0.733-0.613c-0.2-0.135-0.767-0.503-1.535-0.503
	c-0.865,0-1.66,0.333-2.245,0.657c-0.632,0.35-1.256,0.822-1.829,1.361c-1.131,1.065-2.243,2.564-2.821,4.296
	c-0.23,0.688-0.277,1.584-0.289,2.335c-0.013,0.842,0.021,1.854,0.083,2.946c0.127,2.189,0.378,4.832,0.652,7.363
	c0.276,2.537,0.579,4.989,0.813,6.804c0.117,0.909,0.217,1.658,0.288,2.182c0.035,0.262,0.063,0.467,0.082,0.608l0.01,0.066v0.022
	c0,0.113,0.001,0.277,0.002,0.488c0.002,0.42,0.008,1.024,0.018,1.763c0.021,1.477,0.063,3.493,0.146,5.651
	c0.083,2.154,0.208,4.469,0.397,6.536c0.185,2.014,0.445,3.962,0.843,5.286c0.408,1.359,1.574,3.651,2.922,6.106
	c1.395,2.537,3.121,5.492,4.796,8.293c1.677,2.805,3.312,5.469,4.526,7.434c0.608,0.98,1.111,1.787,1.463,2.35
	c0.175,0.281,0.313,0.5,0.407,0.65l0.107,0.17l0.028,0.045l0.007,0.012l0.002,0.002v0.002c0,0,0,0,1.854-1.168l-1.853,1.168
	l4.042,6.41v-7.578v-33.721v-0.172l-0.027-0.17L28.688,178.289z"/>
<path fill="#FFFFFF" stroke="#FFFFFF" stroke-width="5" d="M49.734,295.123l-4.379-15.707l0.003,0.055l3.941,74.891l0.001,0.027
	l0.002,0.025l2.183-0.168c-2.183,0.168-2.183,0.168-2.183,0.168v0.002h0l0,0.008l0.003,0.025l0.007,0.102
	c0.007,0.088,0.018,0.217,0.031,0.383c0.028,0.33,0.069,0.807,0.125,1.404c0.111,1.189,0.276,2.852,0.498,4.732
	c0.44,3.74,1.109,8.453,2.021,12.1c0.318,1.273,1.043,2.545,1.924,3.746c0.899,1.225,2.06,2.508,3.395,3.807
	c2.671,2.6,6.166,5.387,10.007,8.059c7.656,5.322,16.949,10.383,24.247,12.662c3.843,1.201,9.41,1.633,15.57,1.6
	c6.218-0.035,13.256-0.549,20.152-1.35c6.9-0.799,13.701-1.891,19.451-3.09c5.695-1.188,10.531-2.512,13.398-3.826
	c1.742-0.799,3.379-2.291,4.883-4.059c1.535-1.801,3.068-4.049,4.564-6.564c2.996-5.031,5.957-11.311,8.578-17.629
	c2.627-6.326,4.934-12.752,6.615-18.104c1.65-5.25,2.783-9.723,2.91-12.01c0.227-4.08-0.549-25.486-1.367-45.646
	c-0.41-10.131-0.834-20.016-1.156-27.365c-0.16-3.676-0.297-6.719-0.391-8.842c-0.049-1.063-1.398,16.898-1.422,16.332l1.281-19.439
	l-0.008-0.166l-0.002-0.041v-0.012v-0.002c0,0,0.916,14.377-1.271,14.477l1.271-14.479l-0.117-2.576l-47.324,83.043l-42.496,5.061
	l-33.999-31.705L49.734,295.123L49.734,295.123L49.734,295.123z"/>
<path fill="none" stroke="#FFFFFF" stroke-width="5" d="M16.483,174.38c-0.027,0.002-0.027,0.002-0.027,0.002v0.003l0.001,0.013
	l0.002,0.05l0.012,0.194c0.01,0.171,0.027,0.424,0.047,0.754c0.043,0.66,0.108,1.629,0.195,2.868
	c0.175,2.478,0.443,6.037,0.813,10.366c0.741,8.658,1.895,20.409,3.542,32.771c1.647,12.354,3.794,25.359,6.531,36.514
	c2.706,11.029,6.078,20.652,10.368,25.895c7.918,9.678,18.58,21.771,28.318,31.783c4.867,5.004,9.529,9.518,13.518,12.955
	c1.993,1.719,3.845,3.193,5.488,4.33c1.608,1.117,3.153,2.008,4.514,2.436c8.832,2.791,21.084,2.281,31.764,0.057
	c1.672-0.35,3.754-1.328,6.004-2.621c2.303-1.326,4.965-3.094,7.844-5.18c5.764-4.178,12.492-9.705,19.102-15.717
	c6.609-6.008,13.131-12.533,18.463-18.705c5.289-6.121,9.563-12.072,11.488-16.924c3.678-9.268,7.533-30.01,10.471-51.643
	c2.945-21.712,5.012-44.708,5.012-58.65c0-13.856-0.66-28.844-2.428-42.704c-1.762-13.822-4.645-26.683-9.172-36.192
	c-4.527-9.505-14.928-24.12-30.422-36.048c-15.527-11.952-36.285-21.288-61.452-19.94C71.211,32.4,52.961,45.052,40.423,59.381
	c-12.51,14.298-19.425,30.354-22.119,38.884c-1.408,4.454-2.18,11.494-2.59,19.335c-0.415,7.909-0.469,16.858-0.358,25.257
	c0.11,8.403,0.385,16.282,0.632,22.057c0.124,2.889,0.24,5.253,0.326,6.897c0.043,0.821,0.078,1.462,0.103,1.899
	c0.013,0.219,0.022,0.385,0.029,0.498l0.008,0.128l0.001,0.033l0,0.009l0,0.001C16.456,174.381,16.456,174.381,16.483,174.38z"/>
<path fill="#E4E3EA" stroke="#1D1C4E" stroke-width="5" d="M195.075,219.783l-12.098,10.504l5.945-58.64
	c1.576-1.838,3.814-4.323,5.887-6.371c1.145-1.13,2.188-2.076,3.018-2.705c0.219-0.167,0.406-0.297,0.559-0.398
	c0.119,0.102,0.254,0.227,0.402,0.378c0.563,0.563,1.217,1.349,1.857,2.229c0.639,0.874,1.232,1.792,1.684,2.599
	c0.482,0.871,0.691,1.417,0.73,1.607c0.01,0.053,0.027,0.292-0.127,0.842c-0.148,0.531-0.396,1.152-0.725,1.917
	c-0.068,0.157-0.139,0.322-0.215,0.495c-0.584,1.341-1.344,3.086-1.582,4.765c-0.135,0.944-0.188,3.063-0.215,5.542
	c-0.027,2.558-0.027,5.714-0.027,8.883v0.009c0,6.454-0.004,12.726-0.205,14.539c-0.084,0.746-0.404,1.986-0.91,3.556
	c-0.496,1.524-1.123,3.219-1.746,4.813c-0.619,1.592-1.227,3.064-1.682,4.141c-0.227,0.538-0.412,0.976-0.545,1.276
	C195.081,219.771,195.077,219.777,195.075,219.783z M198.847,161.925c-0.002,0.001-0.016,0.008-0.043,0.016
	C198.833,161.928,198.849,161.925,198.847,161.925z M198.003,161.883c-0.004-0.001-0.004-0.002-0.004-0.002
	S197.999,161.882,198.003,161.883z"/>
<path fill="#E4E3EA" stroke="#1D1C4E" stroke-width="5" d="M17.328,193.521v-0.152l-0.021-0.15l-2.169,0.302l2.169-0.303l0,0
	l0-0.003l-0.001-0.01l-0.006-0.039l-0.021-0.155c-0.019-0.138-0.046-0.339-0.082-0.597c-0.069-0.516-0.168-1.258-0.283-2.156
	c-0.231-1.798-0.531-4.218-0.803-6.718c-0.272-2.504-0.514-5.062-0.634-7.143c-0.061-1.044-0.088-1.935-0.078-2.625
	c0.01-0.63,0.052-0.924,0.063-1c0.003-0.019,0.003-0.024,0.001-0.018c0.299-0.896,0.938-1.805,1.669-2.492
	c0.237-0.224,0.464-0.405,0.665-0.542c0.158,0.182,0.339,0.402,0.542,0.658c0.79,1.003,1.752,2.371,2.702,3.782
	c0.944,1.402,1.849,2.808,2.52,3.864c0.336,0.528,0.611,0.969,0.803,1.275c0.023,0.039,0.046,0.074,0.067,0.109l3.846,24.356v25.853
	c-0.772-1.266-1.604-2.641-2.446-4.045c-1.664-2.783-3.359-5.686-4.715-8.156c-1.403-2.555-2.317-4.424-2.566-5.254
	c-0.259-0.865-0.492-2.421-0.676-4.431c-0.18-1.957-0.302-4.186-0.383-6.302c-0.081-2.111-0.122-4.091-0.143-5.544
	c-0.009-0.725-0.015-1.318-0.017-1.729c-0.001-0.206-0.002-0.365-0.002-0.473l0-0.123v-0.03v-0.008V193.521L17.328,193.521z"/>
<path fill="#FFFFFF" stroke="#1D1C4E" stroke-width="5" d="M180.396,274.607c0.322,7.35,1.135,6.211,1.545,16.336
	c0.826,20.346,1.582,41.424,1.371,45.225c-0.092,1.656-1.039,5.613-2.715,10.941c-1.645,5.227-3.908,11.533-6.482,17.74
	c-2.58,6.217-5.447,12.283-8.297,17.064c-1.424,2.391-2.814,4.416-4.135,5.963c-1.346,1.582-2.486,2.512-3.373,2.916
	c-2.389,1.098-6.807,2.342-12.469,3.523c-5.607,1.17-12.275,2.24-19.061,3.027c-6.789,0.787-13.657,1.287-19.673,1.32
	c-6.076,0.033-11.075-0.41-14.239-1.4c-6.716-2.098-15.598-6.893-23.051-12.076c-3.714-2.586-7.007-5.219-9.455-7.602
	c-1.225-1.193-2.206-2.291-2.918-3.262c-0.73-0.994-1.086-1.734-1.207-2.215c-0.839-3.361-1.484-7.844-1.92-11.551
	c-0.216-1.84-0.379-3.463-0.487-4.627c-0.054-0.582-0.094-1.047-0.122-1.365c-0.013-0.162-0.023-0.283-0.03-0.367l-0.008-0.094
	v-0.004l-1.309-56.936l2.627-8.758l16.546,25.422l13.416,30.637l47.85-14.4l47.789-52.453"/>
<path fill="#E5E4EA" d="M176.302,296.877c3.066-8.322,7.047-25.986,7.047-25.986l-25.168,31.504c0,0-28.301,30.049-50.552,31.32
	c-22.316,1.277-57.019-42.168-57.019-42.168l1.752,15.838c0,0,11.824,14.014,16.204,19.271c4.379,5.254,13.576,24.523,17.955,26.715
	c4.379,2.188,17.518,2.627,28.467,0c10.947-2.629,15.766-7.447,25.4-16.205S173.235,305.195,176.302,296.877z"/>
<path fill="#E4E3EA" d="M60.683,313.08c-0.876-2.189-6.569-7.447-6.569-7.447l-3.504-7.004l3.504,53.428
	c1.492,8.949,0.675,17.889,5.255,24.525c4.833,7,15.282,11.635,25.401,18.83c1.142,0.813-3.503-21.457-3.066-23.211
	c0.438-1.752-4.817-6.131-6.569-8.32c-1.752-2.189-9.197-15.764-10.073-18.832C64.187,341.984,61.559,315.27,60.683,313.08z"/>
<path fill="none" stroke="#1D1C4E" stroke-width="5" d="M101.844,278.854l8.765-0.268l-1.313,0.771l71.297-20.145
	c0.01,0.234-0.209-4.723-0.199-4.457c0.096,2.121,0.23,5.164,0.393,8.836c0.32,7.348,0.744,17.227,1.154,27.352
	c0.826,20.346,1.582,41.424,1.371,45.225c-0.092,1.656-1.039,5.613-2.715,10.941c-1.645,5.227-3.908,11.533-6.482,17.74
	c-2.58,6.217-5.447,12.283-8.297,17.064c-1.424,2.391-2.814,4.416-4.135,5.963c-1.346,1.582-2.486,2.512-3.373,2.916
	c-2.389,1.098-6.807,2.342-12.469,3.523c-5.607,1.17-12.275,2.24-19.061,3.027c-6.789,0.787-13.657,1.287-19.673,1.32
	c-6.076,0.033-11.075-0.41-14.239-1.4c-6.716-2.098-15.598-6.893-23.051-12.076c-3.714-2.586-7.007-5.219-9.455-7.602
	c-1.225-1.193-2.206-2.291-2.918-3.262c-0.73-0.994-1.086-1.734-1.207-2.215c-0.839-3.361-1.484-7.844-1.92-11.551
	c-0.216-1.84-0.379-3.463-0.487-4.627c-0.054-0.582-0.094-1.047-0.122-1.365c-0.013-0.162-0.023-0.283-0.03-0.367l-0.008-0.094
	v-0.004l-3.938-74.803l0.876-8.41L101.844,278.854z"/>
<g display="none">
	<path fill="#FFFFFF" d="M13.942,167.856c-0.018,0.001-0.041,0.002-0.074,0.004L13.942,167.856z"/>
	<path fill="#FFFFFF" d="M11.501,168l0.894-0.07C12.139,167.95,11.846,167.973,11.501,168z"/>
	<path fill="#FFFFFF" d="M12.426,167.945c-0.263,0.016-0.565,0.034-0.925,0.055L12.426,167.945z"/>
</g>
<path display="none" fill="#FFFFFF" d="M13.22,167.865l-0.43,0.034C12.957,167.886,13.096,167.875,13.22,167.865z"/>
<path id="head" fill="#FFFFFF" d="M190.315,132.646c-0.877-5.693-10.072-14.453-11.387-18.394s0-31.532-3.504-36.349
	c-3.504-4.818-14.891-14.015-21.459-16.642c-6.57-2.628-107.297,6.569-112.553,10.51c-5.255,3.941-10.072,13.576-12.262,17.518
	c-2.19,3.942-3.942,39.416-4.38,43.357s-4.38,14.014-4.38,14.014v21.846c0.095,1.578,0.182,2.914,0.253,3.95
	c0.055,0.805,0.1,1.431,0.131,1.856c0.016,0.212,0.028,0.373,0.036,0.481l0.009,0.122l0.003,0.031v0.007v0.001
	c0,0.001-0.008,0.001-0.433,0.036l0,0l0.433-0.035l0.002,0.021l0.001,0.021v0.003l0,0.011l0.003,0.047l0.011,0.188
	c0.011,0.167,0.026,0.415,0.047,0.741c0.042,0.652,0.106,1.612,0.193,2.842c0.174,2.459,0.44,5.997,0.809,10.303
	c0.737,8.613,1.883,20.292,3.52,32.566c1.638,12.281,3.761,25.111,6.443,36.047c2.713,11.061,5.91,19.775,9.503,24.166
	c7.848,9.592,18.426,21.586,28.068,31.502c3.568,3.668,6.991,7.033,10.092,9.883c-0.826-1.164-1.462-2.189-1.753-2.773
	c-0.876-1.752-1.752-5.693-1.752-8.32s0.876-11.387,1.752-12.262c0.875-0.875,7.445-1.313,9.197-0.875s4.38,2.627,4.38,2.627
	s8.759,3.502,12.7,3.939c3.94,0.438,10.949-0.875,13.139-1.313s9.635-7.006,11.824-7.006s5.693,2.627,7.008,4.379
	s4.379,13.576,3.941,15.328c-0.176,0.701-0.566,1.969-1.193,3.375c4.1-3.25,8.473-6.961,12.814-10.908
	c6.514-5.924,12.904-12.32,18.094-18.328c5.232-6.057,9.09-11.547,10.729-15.676c3.449-8.688,7.256-28.893,10.205-50.615
	c1.375-10.141,2.553-20.526,3.416-30.105C192.954,174.279,190.948,136.762,190.315,132.646z M35.282,147.098h-5.693
	c0,0,7.882-14.014,12.701-14.89c4.817-0.876,39.853,8.321,39.853,8.321l3.066,5.693l-37.226-3.066L35.282,147.098z M84.771,250.016
	c-2.19,2.189-15.766,12.262-15.766,12.262s-8.759,0.877-10.949-1.313s-3.941-7.01-3.941-7.01s10.073-3.064,14.89-3.939
	c4.817-0.875,21.021-8.322,21.021-8.322S86.96,247.826,84.771,250.016z M86.96,221.111l-2.627-2.628c0,0,6.569-1.752,9.197,0
	l4.817,5.255L86.96,221.111z M113.237,219.359c1.313-1.313,10.51-3.941,10.51-3.941v3.941l-5.254,2.629h-7.884L113.237,219.359z
	 M151.776,260.525c-2.627,0.439-11.824-2.189-14.451-3.939c-2.629-1.754-6.57-5.695-9.197-7.445
	c-2.629-1.752-15.331-8.76-15.331-8.76l-0.875-2.189c0,0,9.197,1.313,12.701,2.189c3.504,0.875,19.707,6.131,22.334,7.445
	c2.629,1.314,10.512,6.129,10.512,6.129S154.405,260.088,151.776,260.525z M175.427,143.157c0,0-9.637-4.379-15.328-5.255
	c-5.693-0.876-37.227,5.255-37.227,5.255l4.379-6.569l4.379-1.313c0,0,28.469-7.883,31.971-7.008
	c3.504,0.876,11.826,9.635,11.826,9.635V143.157z"/>
<path fill="#E4E3EA" d="M77.763,320.523c-0.876-1.752-1.752-5.693-1.752-8.32s0.876-11.387,1.752-12.262
	c0.875-0.875,7.445-1.313,9.197-0.875s4.38,2.627,4.38,2.627s1.017,0.406,2.513,0.961c-2.043-5.857-4.703-13.793-4.703-15.414
	c0-2.627,0.875-4.818,3.941-7.008c3.065-2.189,17.08-0.875,21.458-2.189c4.381-1.313,12.701-9.197,12.701-9.197l2.189-6.568
	l-49.488-3.064l-7.041-0.734c-2.249,1.691-3.907,2.924-3.907,2.924s-8.759,0.875-10.949-1.314c-1.552-1.553-2.881-4.418-3.525-5.959
	c-5.494-3.701-14.393-10.029-16.183-13.311c-2.627-4.816-6.131-34.159-6.131-34.159s-4.817-21.897-5.693-24.087
	c-0.876-2.19-6.131-11.824-6.131-11.824l3.941,45.108l14.014,62.187l38.977,42.918l0.503-0.314
	C77.808,320.607,77.781,320.561,77.763,320.523z"/>
<path fill="#E4E3EA" d="M76.887,149.727l-19.27-6.57h21.898c0,0,6.569,0.438,8.759,6.57s4.379,10.51,4.817,13.138
	c0.438,2.627-2.627,29.78-2.627,29.78s2.189,3.504,0,7.446c-2.19,3.941-10.949,7.007-10.949,7.007l4.379-14.453
	c0,0,2.189-15.766,2.189-18.394c0-2.627-1.313-7.007-2.189-8.759c-0.876-1.752-2.627-2.627-4.379-2.627s-2.628,5.693-2.628,5.693
	s-6.569,5.693-11.824,5.693c-5.256,0-10.073-11.386-10.073-11.386s1.314-3.066,2.627-3.504c1.314-0.438,12.263-1.752,14.015-1.752
	s7.883,1.752,7.883-1.751C79.515,152.354,76.887,149.727,76.887,149.727z"/>
<path fill="#E4E3EA" d="M39.662,157.609c-1.752-0.875-3.503-3.065-3.503-5.692c0-1.796,5.521-5.636,9.017-7.888l-9.894,3.07h-5.693
	c0,0,2.985-5.303,6.403-9.589l-3.338-16.687l-1.752-38.539L19.079,119.07l1.313,51.678l2.189-7.446c0,0,6.131,1.752,8.321,3.504
	c2.19,1.752,6.131,11.825,8.759,12.7s7.007-1.751,8.321-3.065c1.314-1.313,4.817-14.452,3.942-15.766
	C51.048,159.361,41.413,158.485,39.662,157.609z"/>
<path fill="#CCCCD0" d="M120.245,250.453c-3.066-0.875-11.825,1.752-14.016,1.752c-2.189,0-10.511-1.752-14.014-1.752
	c-2.17,0-10.055,3.025-15.742,5.328c-1.808,1.379-3.575,2.709-4.938,3.73c3.68,3.369,15.5,12.84,32.066,12.84
	c20.145,0,37.225-14.016,37.225-14.016S123.31,251.33,120.245,250.453z"/>
<path fill="none" stroke="#1D1C4E" stroke-width="2" d="M40.976,169.434c0,0,7.007-7.445,17.956-7.883
	c10.948-0.438,20.146,7.883,20.146,7.883"/>
<path fill="#E4E3EA" d="M154.405,154.105c-3.066-0.876-23.65,1.752-25.84,0c-2.189-1.751-3.066-1.313-3.066-3.941
	c0-2.627,14.277-8.671,15.328-10.073l-0.123-0.112c-9.104,1.48-17.832,3.177-17.832,3.177l1.391-2.083
	c-0.641,0.308-1.129,0.573-1.391,0.771c-1.752,1.313-7.555,9.634-8.322,15.765c-0.766,6.131-0.438,17.081,0.439,20.583
	c0.877,3.504,5.693,15.767,5.693,15.767l7.883,8.32l-7.883-14.89v-14.452c0,0,0-5.694,0.438-7.445
	c0.438-1.752,2.189-4.817,4.379-4.817c2.191,0,1.314,2.627,3.066,5.255s3.941,3.941,7.008,4.379c3.064,0.438,17.516,0.876,21.459,0
	c3.941-0.876,12.699-7.445,12.262-9.635C168.856,158.485,157.47,154.982,154.405,154.105z"/>
<path fill="none" stroke="#1D1C4E" d="M98.347,279.357h15.328"/>
<path fill="none" stroke="#1D1C4E" d="M69.88,258.336h17.08l19.27,0.877l19.707-0.877h14.016"/>
<path fill="none" stroke="#1D1C4E" d="M80.39,206.221c0,0-4.73,8.321-3.503,14.453c1.227,6.131,6.132,7.006,6.132,7.006"/>
<path fill="none" stroke="#1D1C4E" d="M130.317,209.287c0,0,3.504,3.066,2.189,9.635c-1.314,6.568-5.693,7.443-5.693,7.443"/>
<path fill="#E4E3EA" d="M123.747,212.79c-2.189,0-10.073,2.19-11.824,2.628c-1.752,0.438-5.693,4.381-8.32,3.941
	c-2.628-0.438-7.008-3.503-8.76-3.941c-1.751-0.438-10.948,0.876-12.262,0c-1.313-0.876-0.876-5.255,0-6.131
	c0.876-0.876,3.503-5.693,3.503-5.693l-6.131,2.189c0,0-3.065,7.883-3.065,12.7s3.065,7.444,3.065,7.444s6.131-3.064,8.321-3.064
	s13.139,3.941,15.329,3.941c2.188,0,8.757-1.752,10.947-2.189c1.061-0.213,3.246-1.898,5.221-3.268l-1.277,0.641h-7.884l2.627-2.629
	c1.313-1.313,10.51-3.941,10.51-3.941v3.941l-0.424,0.213c0.27,0.047,0.424,0.25,0.424,0.664c0,2.803,4.381,3.793,6.57,4.379
	l2.189-3.941v-5.693C132.507,214.98,125.937,212.79,123.747,212.79z M86.96,221.111l-2.627-2.628c0,0,6.569-1.752,9.197,0
	l4.817,5.255L86.96,221.111z"/>
<path fill="#1D1C4E" d="M59.807,173.375c3.941,0,7.007-2.627,7.007-6.131c0-3.503-3.066-6.131-7.007-6.131s-7.444,2.19-7.444,6.131
	C52.363,171.186,55.866,173.375,59.807,173.375z"/>
<path fill="none" stroke="#1D1C4E" stroke-width="2" d="M129.88,165.055c0,0,6.568-7.446,17.52-7.884
	c10.945-0.438,20.582,7.007,20.582,7.007"/>
<path fill="#1D1C4E" d="M149.149,169.872c3.939,0,7.006-2.628,7.006-6.131s-3.066-6.131-7.006-6.131
	c-3.943,0-7.445,2.19-7.445,6.131S145.206,169.872,149.149,169.872z"/>
<path fill="none" stroke="#1D1C4E" stroke-width="5" d="M20.828,174.122L20.828,174.122l-2.187,0.129
	c2.187-0.13,2.187-0.13,2.186-0.131v-0.001l0-0.008l-0.001-0.031l-0.008-0.125c-0.006-0.11-0.016-0.274-0.027-0.49
	c-0.025-0.432-0.06-1.067-0.102-1.883c-0.086-1.631-0.202-3.98-0.325-6.854c-0.246-5.747-0.519-13.581-0.628-21.928
	c-0.109-8.353-0.055-17.195,0.353-24.97c0.411-7.843,1.17-14.379,2.392-18.246c2.562-8.112,9.225-23.587,21.238-37.319
	C55.706,48.566,72.93,36.694,96.712,35.419c23.883-1.28,43.637,7.559,58.547,19.037c14.941,11.502,24.906,25.572,29.139,34.46
	c4.23,8.885,7.039,21.206,8.783,34.864c1.736,13.623,2.391,28.415,2.391,42.149c0,13.649-2.035,36.417-4.971,58.062
	c-2.949,21.725-6.756,41.93-10.205,50.615c-1.637,4.131-5.496,9.619-10.729,15.678c-5.189,6.008-11.58,12.402-18.094,18.328
	c-6.514,5.924-13.119,11.346-18.727,15.408c-2.803,2.031-5.332,3.705-7.459,4.93c-2.18,1.254-3.76,1.932-4.713,2.131
	c-10.343,2.154-21.742,2.521-29.551,0.055c-0.721-0.227-1.83-0.814-3.337-1.859c-1.472-1.02-3.196-2.387-5.123-4.047
	c-3.854-3.322-8.415-7.734-13.238-12.693c-9.642-9.912-20.22-21.908-28.068-31.5c-3.593-4.395-6.791-13.107-9.503-24.166
	c-2.683-10.936-4.806-23.768-6.444-36.049c-1.636-12.273-2.782-23.952-3.52-32.565c-0.368-4.306-0.634-7.843-0.809-10.303
	c-0.086-1.229-0.15-2.189-0.193-2.841c-0.021-0.326-0.036-0.574-0.046-0.741l-0.012-0.188l-0.002-0.047l0-0.012V174.122
	c0,0.001,0,0-2.186,0.129L20.828,174.122z"/>
</svg>
