<?xml version="1.0" encoding="utf-8"?>
<!-- Generator: Adobe Illustrator 16.0.0, SVG Export Plug-In . SVG Version: 6.00 Build 0)  -->
<!DOCTYPE svg PUBLIC "-//W3C//DTD SVG 1.1//EN" "http://www.w3.org/Graphics/SVG/1.1/DTD/svg11.dtd">
<svg version="1.1" id="Layer_1" xmlns="http://www.w3.org/2000/svg" xmlns:xlink="http://www.w3.org/1999/xlink" x="0px" y="0px"
	 width="230px" height="431px" viewBox="0 0 230 431" enable-background="new 0 0 230 431" xml:space="preserve">
<rect display="none" fill="#0F9948" width="230" height="431"/>
<path fill="#E4E3EA" stroke="#1D1C4E" stroke-width="5" d="M212.934,218.984l-13.811,11.992l6.786-66.949
	c1.8-2.099,4.354-4.936,6.723-7.274c1.306-1.29,2.497-2.37,3.442-3.088c0.251-0.19,0.465-0.34,0.641-0.454
	c0.135,0.116,0.287,0.259,0.459,0.432c0.641,0.643,1.387,1.54,2.12,2.544c0.729,0.998,1.407,2.046,1.921,2.968
	c0.553,0.994,0.79,1.617,0.834,1.834c0.012,0.061,0.032,0.333-0.145,0.961c-0.17,0.606-0.452,1.316-0.827,2.189
	c-0.077,0.18-0.159,0.369-0.245,0.566c-0.666,1.531-1.533,3.523-1.807,5.44c-0.154,1.078-0.213,3.497-0.244,6.327
	c-0.031,2.92-0.031,6.524-0.031,10.141v0.011c0,7.369-0.005,14.529-0.234,16.599c-0.095,0.852-0.461,2.268-1.041,4.059
	c-0.565,1.741-1.281,3.676-1.992,5.496c-0.707,1.817-1.401,3.499-1.92,4.727c-0.258,0.613-0.472,1.112-0.621,1.457
	C212.939,218.97,212.936,218.977,212.934,218.984z M217.24,152.928c-0.002,0.001-0.018,0.009-0.051,0.018
	C217.225,152.931,217.241,152.927,217.24,152.928z M216.277,152.88c-0.004-0.002-0.006-0.003-0.006-0.003
	S216.273,152.878,216.277,152.88z"/>
<path fill="#E4E3EA" stroke="#1D1C4E" stroke-width="5" d="M10.001,189v-0.174l-0.024-0.171L7.501,189l2.476-0.346l0,0l0-0.003
	l-0.001-0.011l-0.006-0.045l-0.024-0.177c-0.021-0.157-0.053-0.387-0.093-0.682c-0.08-0.589-0.192-1.436-0.324-2.462
	c-0.264-2.052-0.606-4.816-0.916-7.669c-0.311-2.86-0.587-5.78-0.724-8.155c-0.068-1.191-0.1-2.209-0.088-2.997
	c0.011-0.719,0.06-1.056,0.072-1.142c0.003-0.021,0.004-0.027,0.001-0.02c0.341-1.023,1.071-2.061,1.905-2.845
	c0.271-0.255,0.53-0.462,0.759-0.619c0.18,0.208,0.387,0.458,0.618,0.752c0.902,1.144,2.001,2.707,3.085,4.317
	c1.077,1.6,2.111,3.205,2.877,4.412c0.383,0.603,0.697,1.106,0.917,1.456c0.027,0.044,0.053,0.085,0.077,0.124l4.391,27.808v29.515
	c-0.882-1.445-1.831-3.013-2.792-4.619c-1.9-3.177-3.835-6.49-5.384-9.311c-1.602-2.917-2.645-5.051-2.93-5.999
	c-0.296-0.987-0.562-2.764-0.772-5.058c-0.206-2.235-0.344-4.779-0.437-7.195c-0.093-2.411-0.139-4.671-0.163-6.33
	c-0.011-0.828-0.017-1.505-0.02-1.974c-0.001-0.235-0.002-0.417-0.002-0.54l0-0.14v-0.034v-0.009V189L10.001,189z"/>
<path fill="#FFFFFF" stroke="#1D1C4E" stroke-width="5" d="M196.176,281.578c0.366,8.389,1.295,7.089,1.764,18.648
	c0.941,23.23,1.806,47.293,1.564,51.635c-0.105,1.889-1.188,6.408-3.1,12.49c-1.877,5.969-4.461,13.166-7.401,20.254
	c-2.944,7.098-6.22,14.023-9.472,19.482c-1.627,2.73-3.215,5.042-4.721,6.809c-1.537,1.805-2.84,2.867-3.853,3.33
	c-2.726,1.25-7.769,2.674-14.233,4.021c-6.404,1.335-14.016,2.559-21.763,3.456c-7.75,0.898-15.592,1.469-22.46,1.507
	c-6.936,0.039-12.644-0.468-16.256-1.597c-7.668-2.396-17.808-7.871-26.318-13.791c-4.24-2.95-7.999-5.957-10.793-8.677
	c-1.398-1.361-2.519-2.615-3.332-3.723c-0.834-1.137-1.24-1.982-1.377-2.529c-0.959-3.838-1.695-8.955-2.192-13.187
	c-0.247-2.101-0.433-3.955-0.556-5.283c-0.062-0.664-0.108-1.196-0.139-1.561c-0.015-0.183-0.027-0.322-0.034-0.416l-0.009-0.106
	v-0.005L50,307.333l3-10l18.89,29.024l15.317,34.976l54.63-16.438l54.56-59.885"/>
<path fill="#E5E4EA" d="M191.5,307c3.5-9.5,8.045-29.667,8.045-29.667l-28.733,35.968c0,0-32.312,34.306-57.714,35.759
	C87.619,350.517,48,300.916,48,300.916L50,319c0,0,13.5,16,18.5,22S84,369,89,371.5s20,3,32.5,0s18-8.5,29-18.5S188,316.5,191.5,307
	z"/>
<path fill="#E4E3EA" d="M59.5,325.5c-1-2.5-7.5-8.5-7.5-8.5l-4-8l4,61c1.703,10.218,0.771,20.424,6,28
	c5.518,7.993,17.448,13.285,29,21.5c1.304,0.927-4-24.5-3.5-26.5s-5.5-7-7.5-9.5s-10.5-18-11.5-21.5S60.5,328,59.5,325.5z"/>
<path fill="none" stroke="#1D1C4E" stroke-width="5" d="M106.493,286.424l10.007-0.305L115,287l81.399-23
	c0.012,0.268-0.239-5.391-0.227-5.089c0.108,2.423,0.263,5.896,0.447,10.089c0.366,8.389,0.851,19.667,1.319,31.227
	c0.941,23.23,1.806,47.293,1.564,51.635c-0.105,1.889-1.188,6.408-3.1,12.49c-1.877,5.969-4.461,13.166-7.401,20.254
	c-2.944,7.098-6.22,14.023-9.472,19.482c-1.627,2.73-3.215,5.042-4.721,6.809c-1.537,1.805-2.84,2.867-3.853,3.33
	c-2.726,1.25-7.769,2.674-14.233,4.021c-6.404,1.335-14.016,2.559-21.763,3.456c-7.75,0.898-15.592,1.469-22.46,1.507
	c-6.936,0.039-12.644-0.468-16.256-1.597c-7.668-2.396-17.808-7.871-26.318-13.791c-4.24-2.95-7.999-5.957-10.793-8.677
	c-1.398-1.361-2.519-2.615-3.332-3.723c-0.834-1.137-1.24-1.982-1.377-2.529c-0.959-3.838-1.695-8.955-2.192-13.187
	c-0.247-2.101-0.433-3.955-0.556-5.283c-0.062-0.664-0.108-1.196-0.139-1.561c-0.015-0.183-0.027-0.322-0.034-0.416l-0.009-0.106
	v-0.005L47,286.934l1-9.603L106.493,286.424z"/>
<path fill="#FFFFFF" d="M207.499,119.5c-1-6.5-11.5-16.5-13-21s0-36-4-41.5s-17-16-24.5-19S43.5,45.5,37.5,50S26,65.5,23.5,70
	s-4.5,45-5,49.5s-5,16-5,16v24.941c0.108,1.802,0.208,3.327,0.289,4.51c0.063,0.919,0.114,1.634,0.15,2.119
	c0.018,0.242,0.032,0.426,0.041,0.55l0.011,0.139l0.002,0.034l0.001,0.009v0.001c0,0.001-0.01,0.002-0.494,0.041l0.494-0.039
	l0.002,0.024l0.001,0.025v0.003l0.001,0.013l0.003,0.054l0.013,0.215c0.012,0.19,0.03,0.474,0.054,0.846
	c0.048,0.744,0.121,1.84,0.22,3.244c0.199,2.808,0.502,6.846,0.923,11.762c0.842,9.834,2.15,23.168,4.019,37.18
	c1.87,14.021,4.293,28.672,7.356,41.156c3.098,12.626,6.748,22.576,10.85,27.591c8.959,10.95,21.037,24.646,32.045,35.965
	c4.074,4.188,7.982,8.031,11.522,11.284c-0.943-1.331-1.669-2.5-2.002-3.166c-1-2-2-6.5-2-9.5s1-13,2-14s8.5-1.5,10.5-1s5,3,5,3
	s10,4,14.5,4.5s12.5-1,15-1.5s11-8,13.5-8s6.5,3,8,5s5,15.5,4.5,17.5c-0.2,0.802-0.646,2.249-1.361,3.854
	c4.679-3.708,9.673-7.946,14.629-12.453c7.438-6.764,14.733-14.066,20.658-20.926c5.975-6.916,10.379-13.183,12.25-17.896
	c3.936-9.919,8.282-32.986,11.648-57.789c1.571-11.576,2.916-23.434,3.901-34.371C210.512,167.031,208.222,124.198,207.499,119.5z
	 M30.5,136H24c0,0,9-16,14.5-17s45.5,9.5,45.5,9.5l3.5,6.5L45,131.5L30.5,136z M58.5,152c4.5,0,8,3,8,7s-3.5,7-8,7s-8.5-2.5-8.5-7
	S54,152,58.5,152z M87,253.5c-2.5,2.5-18,14-18,14s-10,1-12.5-1.5s-4.5-8-4.5-8s11.5-3.5,17-4.5s24-9.5,24-9.5S89.5,251,87,253.5z
	 M89.5,220.5l-3-3c0,0,7.5-2,10.5,0l5.5,6L89.5,220.5z M119.5,218.5c1.5-1.5,12-4.5,12-4.5v4.5l-6,3h-9L119.5,218.5z M163.5,265.5
	c-3,0.5-13.5-2.5-16.5-4.5s-7.5-6.5-10.5-8.5s-17.5-10-17.5-10l-1-2.5c0,0,10.5,1.5,14.5,2.5s22.5,7,25.5,8.5s12,7,12,7
	S166.5,265,163.5,265.5z M152,155c0-4.5,4-7,8.5-7s8,3,8,7s-3.5,7-8,7S152,159.5,152,155z M190.5,131.5c0,0-11-5-17.5-6
	s-42.5,6-42.5,6l5-7.5l5-1.5c0,0,32.5-9,36.5-8s13.5,11,13.5,11V131.5z"/>
<g display="none">
	<path fill="#FFFFFF" d="M13.942,167.856c-0.018,0.001-0.041,0.002-0.074,0.004L13.942,167.856z"/>
	<path fill="#FFFFFF" d="M11.501,168l0.894-0.07C12.139,167.95,11.846,167.973,11.501,168z"/>
	<path fill="#FFFFFF" d="M12.426,167.945c-0.263,0.016-0.565,0.034-0.925,0.055L12.426,167.945z"/>
</g>
<path display="none" fill="#FFFFFF" d="M13.22,167.865l-0.43,0.034C12.957,167.886,13.096,167.875,13.22,167.865z"/>
<path fill="#E4E3EA" d="M79,334c-1-2-2-6.5-2-9.5s1-13,2-14s8.5-1.5,10.5-1s5,3,5,3s1.162,0.465,2.87,1.097
	C95.038,306.911,92,297.849,92,296c0-3,1-5.5,4.5-8s19.5-1,24.5-2.5s14.5-10.5,14.5-10.5l2.5-7.5L81.5,264l-8.039-0.838
	C70.894,265.095,69,266.5,69,266.5s-10,1-12.5-1.5c-1.772-1.772-3.289-5.044-4.024-6.804C46.203,253.97,36.043,246.746,34,243
	c-3-5.5-7-39-7-39s-5.5-25-6.5-27.5s-7-13.5-7-13.5l4.5,51.5l16,71l44.5,49l0.574-0.36C79.051,334.095,79.021,334.041,79,334z"/>
<path fill="#E4E3EA" d="M35.5,148c-2-1-4-3.5-4-6.5c0-2.05,6.303-6.434,10.295-9.005L30.5,136H24c0,0,3.408-6.055,7.311-10.948
	L27.5,106l-2-44L12,104l1.5,59l2.5-8.5c0,0,7,2,9.5,4s7,13.5,10,14.5s8-2,9.5-3.5s5.5-16.5,4.5-18S37.5,149,35.5,148z"/>
<path fill="#CCCCD0" d="M127.5,254c-3.5-1-13.5,2-16,2s-12-2-16-2c-2.479,0-11.48,3.454-17.972,6.083
	c-2.064,1.574-4.082,3.093-5.638,4.26C76.092,268.188,89.587,279,108.5,279c23,0,42.5-16,42.5-16S131,255,127.5,254z"/>
<path fill="#E4E3EA" d="M96.5,154c-0.5-3-3-8-5.5-15s-10-7.5-10-7.5H56l22,7.5c0,0,3,3,3,7s-7,2-9,2s-14.5,1.5-16,2
	c-1.078,0.359-2.153,2.264-2.674,3.31c1.459-0.857,3.27-1.31,5.174-1.31c4.5,0,8,3,8,7c0,3.211-2.257,5.773-5.475,6.661
	C62.138,166.482,63.309,167,64.5,167c6,0,13.5-6.5,13.5-6.5s1-6.5,3-6.5s4,1,5,3s2.5,7,2.5,10S86,188,86,188l-5,16.5
	c0,0,10-3.5,12.5-8s0-8.5,0-8.5S97,157,96.5,154z"/>
<path fill="none" stroke="#1D1C4E" stroke-width="2" d="M37,161.5c0,0,8-8.5,20.5-9s23,9,23,9"/>
<path fill="none" stroke="#1D1C4E" d="M102.5,287H120"/>
<path fill="#E4E3EA" d="M183.5,151.5c-0.5-2.5-13.5-6.5-17-7.5s-27,2-29.5,0s-3.5-1.5-3.5-4.5s16.3-9.9,17.5-11.5l-0.143-0.128
	c-10.392,1.691-20.357,3.628-20.357,3.628l1.586-2.379c-0.729,0.352-1.287,0.655-1.586,0.879c-2,1.5-8.625,11-9.5,18
	c-0.874,7-0.5,19.5,0.5,23.5s6.5,18,6.5,18l9,9.5l-9-17v-16.5c0,0,0-6.5,0.5-8.5s2.5-5.5,5-5.5s1.5,3,3.5,6s4.5,4.5,8,5s20,1,24.5,0
	S184,154,183.5,151.5z M160.5,162c-4.5,0-8.5-2.5-8.5-7s4-7,8.5-7s8,3,8,7S165,162,160.5,162z"/>
<path fill="none" stroke="#1D1C4E" d="M70,263h19.5l22,1l22.5-1h16"/>
<path fill="#E4E3EA" d="M131.5,211c-2.5,0-11.5,2.5-13.5,3s-6.5,5-9.5,4.5s-8-4-10-4.5s-12.5,1-14,0s-1-6,0-7s4-6.5,4-6.5l-7,2.5
	c0,0-3.5,9-3.5,14.5s3.5,8.5,3.5,8.5s7-3.5,9.5-3.5s15,4.5,17.5,4.5s10-2,12.5-2.5c1.209-0.242,3.705-2.167,5.96-3.73l-1.46,0.73h-9
	l3-3c1.5-1.5,12-4.5,12-4.5v4.5l-0.483,0.242c0.306,0.055,0.483,0.285,0.483,0.758c0,3.2,5,4.333,7.5,5l2.5-4.5v-6.5
	C141.5,213.5,134,211,131.5,211z M89.5,220.5l-3-3c0,0,7.5-2,10.5,0l5.5,6L89.5,220.5z"/>
<path fill="none" stroke="#1D1C4E" d="M81.999,203.5c0,0-5.4,9.5-4,16.5s7,8,7,8"/>
<path fill="none" stroke="#1D1C4E" d="M139,207c0,0,4,3.5,2.5,11s-6.5,8.5-6.5,8.5"/>
<path fill="none" stroke="#1D1C4E" stroke-width="2" d="M138.5,156.5c0,0,7.501-8.5,20.001-9s23.5,8,23.5,8"/>
<path fill="none" stroke="#1D1C4E" stroke-width="5" d="M13.997,166.852L13.997,166.852L11.501,167
	c2.496-0.149,2.496-0.149,2.495-0.15v-0.002l0-0.008l-0.002-0.036l-0.008-0.142c-0.007-0.126-0.018-0.313-0.032-0.559
	c-0.028-0.493-0.068-1.218-0.117-2.15c-0.097-1.862-0.229-4.545-0.37-7.826c-0.281-6.561-0.593-15.504-0.718-25.035
	c-0.125-9.536-0.063-19.632,0.402-28.508c0.469-8.954,1.337-16.416,2.731-20.831c2.925-9.261,10.531-26.93,24.249-42.606
	c13.686-15.641,33.35-29.195,60.502-30.65c27.267-1.461,49.819,8.63,66.841,21.734c17.061,13.132,28.437,29.195,33.269,39.344
	c4.829,10.144,8.038,24.209,10.028,39.804c1.982,15.552,2.729,32.441,2.729,48.121c0,15.583-2.323,41.578-5.677,66.289
	c-3.365,24.803-7.711,47.87-11.648,57.789c-1.869,4.714-6.275,10.98-12.25,17.896c-5.925,6.859-13.221,14.162-20.658,20.926
	s-14.979,12.953-21.379,17.591c-3.201,2.321-6.089,4.231-8.516,5.63c-2.488,1.432-4.292,2.205-5.382,2.432
	c-11.808,2.461-24.822,2.879-33.738,0.063c-0.822-0.259-2.089-0.929-3.81-2.122c-1.68-1.164-3.649-2.725-5.849-4.622
	c-4.399-3.792-9.607-8.828-15.114-14.49c-11.008-11.317-23.085-25.014-32.045-35.965c-4.103-5.015-7.753-14.965-10.85-27.591
	c-3.063-12.484-5.487-27.135-7.356-41.156c-1.868-14.012-3.176-27.346-4.018-37.18c-0.42-4.916-0.725-8.954-0.923-11.762
	c-0.099-1.404-0.172-2.5-0.22-3.244c-0.024-0.372-0.042-0.656-0.054-0.846l-0.013-0.215l-0.003-0.054l-0.001-0.013V166.852
	c0,0.001,0,0-2.495,0.148L13.997,166.852z"/>
</svg>
