<?xml version="1.0" encoding="utf-8"?>
<!-- Generator: Adobe Illustrator 16.0.0, SVG Export Plug-In . SVG Version: 6.00 Build 0)  -->
<!DOCTYPE svg PUBLIC "-//W3C//DTD SVG 1.1//EN" "http://www.w3.org/Graphics/SVG/1.1/DTD/svg11.dtd">
<svg version="1.1" id="Layer_1" xmlns="http://www.w3.org/2000/svg" xmlns:xlink="http://www.w3.org/1999/xlink" x="0px" y="0px"
	 width="431px" height="431px" viewBox="0 0 431 431" enable-background="new 0 0 431 431" xml:space="preserve">
<rect x="0.916" fill="none" width="430.999" height="431"/>
<path fill="#E4E3EA" d="M286.556,169.333l-0.438,0.519l-0.068,0.675l-6.568,64.817l-0.559,5.496l4.172-3.623l16.641-14.451
	l0.371-0.324l0.197-0.447l-2.004-0.883c2.004,0.883,2.004,0.883,2.004,0.881h0.002l0.002-0.002l0.002-0.006l0.012-0.027l0.041-0.094
	c0.035-0.082,0.09-0.205,0.158-0.361c0.133-0.313,0.326-0.762,0.559-1.313c0.463-1.1,1.086-2.611,1.727-4.248
	c0.637-1.637,1.297-3.418,1.826-5.054c0.52-1.593,0.965-3.199,1.1-4.424c0.232-2.092,0.232-8.552,0.232-14.704v-0.318
	c0-3.178,0-6.313,0.027-8.845c0.027-2.613,0.088-4.381,0.17-4.969c0.15-1.054,0.652-2.216,1.273-3.661
	c0.072-0.161,0.143-0.326,0.215-0.495c0.328-0.769,0.682-1.625,0.918-2.462c0.229-0.819,0.41-1.839,0.201-2.881
	c-0.18-0.904-0.686-1.957-1.199-2.879c-0.549-0.985-1.242-2.054-1.971-3.053c-0.727-0.994-1.525-1.964-2.291-2.734
	c-0.381-0.384-0.789-0.751-1.207-1.052c-0.379-0.272-0.941-0.623-1.619-0.758c-0.979-0.196-1.848,0.184-2.279,0.398
	c-0.539,0.267-1.088,0.638-1.607,1.034c-1.053,0.797-2.254,1.899-3.447,3.076C290.751,164.528,288.187,167.405,286.556,169.333z"/>
<path fill="#E4E3EA" d="M130.03,238.482l4.042,6.41v-7.578v-33.721v-0.172l-0.026-0.17l-3.941-24.963l-0.067-0.433l-0.229-0.373
	l-1.865,1.147c1.865-1.147,1.865-1.147,1.865-1.148l0,0l-0.002-0.001l-0.003-0.007l-0.016-0.026l-0.062-0.097
	c-0.053-0.085-0.13-0.209-0.229-0.368c-0.197-0.315-0.479-0.765-0.821-1.305c-0.684-1.077-1.612-2.519-2.585-3.963
	c-0.967-1.437-2.002-2.914-2.896-4.047c-0.44-0.56-0.89-1.088-1.305-1.497c-0.205-0.201-0.454-0.425-0.732-0.613
	c-0.2-0.135-0.768-0.503-1.535-0.503c-0.865,0-1.66,0.333-2.245,0.657c-0.632,0.35-1.256,0.822-1.829,1.361
	c-1.131,1.065-2.243,2.563-2.821,4.296c-0.229,0.688-0.276,1.584-0.289,2.335c-0.013,0.842,0.021,1.854,0.083,2.946
	c0.127,2.189,0.378,4.832,0.652,7.363c0.276,2.537,0.579,4.989,0.813,6.804c0.117,0.909,0.218,1.658,0.288,2.182
	c0.035,0.262,0.063,0.467,0.082,0.608l0.011,0.066v0.022c0,0.113,0.001,0.277,0.002,0.488c0.002,0.42,0.008,1.024,0.018,1.763
	c0.021,1.477,0.063,3.493,0.146,5.651c0.082,2.154,0.207,4.469,0.396,6.536c0.185,2.014,0.445,3.963,0.843,5.286
	c0.408,1.358,1.574,3.651,2.922,6.106c1.396,2.537,3.121,5.492,4.796,8.293c1.678,2.805,3.313,5.469,4.526,7.434
	c0.608,0.98,1.111,1.787,1.463,2.35c0.175,0.281,0.313,0.5,0.407,0.65l0.107,0.17l0.027,0.045l0.007,0.012l0.002,0.002
	L130.03,238.482"/>
<path fill="#020300" fill-opacity="0.8" d="M284.765,253.667l12.568-57l3.623-49.165c0,0-3.599-39.966-8.008-52.485
	c-3.372-9.573-15.372-26.485-22.223-33.974c-6.451-7.051-22.634-17.862-31.216-22.065c-8.285-4.058-26.785-8.154-36.01-8.061
	c-9.874,0.1-29.724,4.622-38.362,9.406c-6.985,3.869-19.319,14.409-24.514,20.472c-5.989,6.99-15.837,22.936-18.818,31.645
	c-3.35,9.786-5.08,41.058-5.08,41.058l2.515,58.548l12.641,45.269L142.392,276l11.387,24.605l27.489,25.243L203,336.5l22.5-3
	l19.207-12.537L273.5,288.5L284.765,253.667z"/>
<path fill="#FFFFFF" d="M152.917,292.583l-6.146-13.167l0.003,0.055l3.941,74.891l0.001,0.027l0.002,0.025l2.183-0.168
	c-2.183,0.168-2.183,0.168-2.183,0.168v0.002l0,0v0.008l0.003,0.025l0.007,0.102c0.007,0.088,0.019,0.217,0.031,0.383
	c0.028,0.33,0.069,0.807,0.125,1.404c0.111,1.189,0.276,2.852,0.498,4.732c0.439,3.74,1.109,8.453,2.021,12.1
	c0.318,1.273,1.043,2.545,1.925,3.746c0.898,1.225,2.06,2.508,3.395,3.807c2.671,2.6,6.166,5.387,10.007,8.059
	c7.656,5.322,16.949,10.383,24.247,12.662c3.843,1.201,9.41,1.633,15.57,1.6c6.218-0.035,13.256-0.549,20.151-1.35
	c6.899-0.799,13.7-1.891,19.45-3.09c5.695-1.188,10.531-2.512,13.398-3.826c1.742-0.799,3.379-2.291,4.883-4.059
	c1.535-1.801,3.068-4.049,4.564-6.564c2.996-5.031,5.957-11.311,8.578-17.629c2.627-6.326,4.934-12.752,6.615-18.104
	c1.65-5.25,2.783-9.723,2.91-12.01c0.227-4.08-0.549-25.486-1.367-45.646c-0.41-10.131-0.834-20.016-1.156-27.365
	c-0.16-3.676-0.297-6.719-0.391-8.842c-0.049-1.063-1.398,16.898-1.422,16.332l1.281-19.439l-0.008-0.166l-0.004-0.041v-0.012
	v-0.002c0,0,0.916,14.377-1.27,14.477l1.27-14.479l-0.115-2.576l-47.324,83.043l-42.496,5.061l-33.999-31.705L155,294.416
	l-0.833-1.083L152.917,292.583z"/>
<path fill="#E5E4EA" d="M277.718,296.877c3.066-8.322,7.047-25.986,7.047-25.986l-25.168,31.504c0,0-28.301,30.049-50.552,31.32
	c-22.316,1.277-57.02-42.168-57.02-42.168l1.752,15.838c0,0,11.824,14.014,16.204,19.271c4.379,5.254,13.576,24.523,17.955,26.715
	c4.379,2.188,17.519,2.627,28.467,0c10.947-2.629,15.766-7.447,25.4-16.205C251.437,328.408,274.65,305.195,277.718,296.877z"/>
<path display="none" fill="#E4E3EA" d="M162.099,313.08c-0.876-2.189-5.941-15.512-5.941-15.512L147,283.25l3.617,69.25
	c1.492,8.949,0.13,17.779,4.71,24.416c4.833,7,19.94,16.099,31.04,21.973c1.143,0.813-2.034-24.222-3.247-26.688
	c0.438-1.752-4.817-6.131-6.569-8.32s-9.197-15.764-10.073-18.832C165.603,341.984,162.975,315.27,162.099,313.08z"/>
<g display="none">
	<path display="inline" fill="#FFFFFF" d="M13.942,167.856c-0.018,0.001-0.041,0.002-0.073,0.004L13.942,167.856z"/>
	<path display="inline" fill="#FFFFFF" d="M11.501,168l0.894-0.07C12.139,167.95,11.846,167.973,11.501,168z"/>
	<path display="inline" fill="#FFFFFF" d="M12.426,167.945c-0.263,0.016-0.565,0.034-0.925,0.055L12.426,167.945z"/>
</g>
<path display="none" fill="#FFFFFF" d="M13.22,167.865l-0.43,0.034C12.957,167.886,13.096,167.875,13.22,167.865z"/>
<path id="head" fill="#FFFFFF" d="M291.73,132.646c-0.877-5.693-10.07-14.453-11.387-18.394c-1.314-3.941,0-31.532-3.504-36.349
	c-3.504-4.818-14.891-14.015-21.459-16.642c-6.57-2.628-107.296,6.569-112.552,10.51c-5.255,3.941-10.072,13.576-12.263,17.518
	c-2.189,3.942-3.941,39.416-4.38,43.357c-0.438,3.941-4.38,14.014-4.38,14.014v21.846c0.095,1.578,0.182,2.914,0.253,3.95
	c0.056,0.805,0.101,1.431,0.131,1.856c0.017,0.212,0.028,0.373,0.036,0.481l0.009,0.122l0.003,0.031v0.007v0.001
	c0,0.001-0.008,0.001-0.433,0.036l0,0l0.433-0.035l0.003,0.021l0.001,0.021V175v0.011l0.003,0.047l0.011,0.188
	c0.011,0.167,0.026,0.415,0.047,0.741c0.042,0.652,0.106,1.612,0.193,2.842c0.174,2.459,0.439,5.997,0.809,10.303
	c0.737,8.613,1.883,20.292,3.521,32.565c1.638,12.281,3.761,25.111,6.442,36.047c2.713,11.063,5.91,19.775,9.503,24.166
	c7.849,9.592,18.426,21.586,28.068,31.502c3.568,3.668,6.991,7.033,10.092,9.883c-0.826-1.164-1.462-2.188-1.753-2.771
	c-0.876-1.752-1.752-5.693-1.752-8.32s0.876-11.387,1.752-12.262c0.875-0.875,7.445-1.314,9.197-0.875
	c1.752,0.438,4.38,2.627,4.38,2.627s8.759,3.502,12.7,3.938c3.939,0.439,10.948-0.875,13.139-1.313s9.635-7.006,11.824-7.006
	c2.188,0,5.691,2.627,7.008,4.379c1.314,1.752,4.379,13.576,3.941,15.328c-0.178,0.701-0.566,1.969-1.193,3.375
	c4.1-3.25,8.473-6.961,12.813-10.908c6.516-5.924,12.904-12.32,18.096-18.328c5.23-6.057,9.09-11.547,10.729-15.676
	c3.449-8.688,7.256-28.893,10.205-50.615c1.375-10.141,2.553-20.525,3.416-30.104C294.37,174.279,292.363,136.762,291.73,132.646z
	 M136.698,147.098h-5.693c0,0,7.882-14.014,12.701-14.89c4.816-0.876,39.853,8.321,39.853,8.321l3.066,5.693l-37.227-3.066
	L136.698,147.098z M186.187,250.016c-2.189,2.189-15.766,12.262-15.766,12.262s-8.759,0.877-10.949-1.313
	c-2.189-2.189-3.94-7.01-3.94-7.01s10.072-3.064,14.89-3.939c4.816-0.875,21.021-8.322,21.021-8.322
	S188.376,247.826,186.187,250.016z M188.376,221.111l-2.627-2.629c0,0,6.568-1.752,9.196,0l4.817,5.256L188.376,221.111z
	 M214.653,219.359c1.313-1.313,10.511-3.941,10.511-3.941v3.941l-5.254,2.629h-7.885L214.653,219.359z M253.191,260.525
	c-2.627,0.438-11.822-2.189-14.449-3.939c-2.631-1.754-6.57-5.695-9.197-7.445c-2.629-1.752-15.331-8.76-15.331-8.76l-0.875-2.189
	c0,0,9.197,1.313,12.701,2.189c3.503,0.875,19.706,6.131,22.333,7.445c2.629,1.314,10.512,6.129,10.512,6.129
	S255.82,260.088,253.191,260.525z M276.843,143.157c0,0-9.637-4.379-15.328-5.255c-5.693-0.876-37.227,5.255-37.227,5.255
	l4.379-6.569l4.379-1.313c0,0,28.469-7.883,31.971-7.008c3.504,0.876,11.826,9.635,11.826,9.635V143.157z"/>
<path fill="#E4E3EA" d="M178.303,149.727l-19.27-6.57h21.897c0,0,6.569,0.438,8.759,6.57c2.19,6.132,4.379,10.51,4.817,13.138
	c0.438,2.627-2.627,29.78-2.627,29.78s2.188,3.504,0,7.446c-2.19,3.941-10.949,7.007-10.949,7.007l4.379-14.453
	c0,0,2.189-15.766,2.189-18.394c0-2.627-1.313-7.007-2.189-8.759s-2.627-2.627-4.379-2.627s-2.628,5.693-2.628,5.693
	s-6.569,5.693-11.824,5.693c-5.256,0-10.072-11.386-10.072-11.386s1.313-3.066,2.627-3.504s12.263-1.752,14.015-1.752
	s7.883,1.752,7.883-1.751C180.931,152.354,178.303,149.727,178.303,149.727z"/>
<path fill="#CCCCD0" d="M221.661,250.453c-3.066-0.875-11.825,1.752-14.017,1.752c-2.188,0-10.511-1.752-14.014-1.752
	c-2.17,0-10.055,3.025-15.742,5.328c-1.808,1.379-3.575,2.709-4.938,3.729c3.68,3.369,15.5,12.842,32.065,12.842
	c20.146,0,37.225-14.018,37.225-14.018S224.726,251.33,221.661,250.453z"/>
<path fill="none" stroke="#1D1C4E" stroke-width="2" d="M142.392,169.434c0,0,7.007-7.445,17.956-7.883
	c10.948-0.438,20.146,7.883,20.146,7.883"/>
<path fill="#E4E3EA" d="M255.82,154.105c-3.064-0.876-23.648,1.752-25.84,0c-2.188-1.751-3.064-1.313-3.064-3.941
	c0-2.627,14.275-8.671,15.328-10.073l-0.123-0.112c-9.105,1.48-17.832,3.177-17.832,3.177l1.391-2.083
	c-0.641,0.308-1.129,0.573-1.391,0.771c-1.752,1.313-7.556,9.634-8.322,15.765c-0.766,6.131-0.438,17.081,0.438,20.583
	c0.878,3.504,5.693,15.767,5.693,15.767l7.882,8.32l-7.882-14.89v-14.452c0,0,0-5.694,0.438-7.445
	c0.438-1.752,2.188-4.817,4.379-4.817s1.313,2.627,3.064,5.255c1.752,2.628,3.941,3.941,7.008,4.379
	c3.064,0.438,17.518,0.876,21.459,0s12.699-7.445,12.264-9.635C270.271,158.485,258.886,154.982,255.82,154.105z"/>
<path fill="none" stroke="#1D1C4E" d="M199.763,279.357h15.328"/>
<path fill="none" stroke="#1D1C4E" d="M171.296,258.336h17.08l19.27,0.877l19.707-0.877h14.016"/>
<path fill="none" stroke="#1D1C4E" d="M181.806,206.221c0,0-4.729,8.321-3.503,14.453c1.227,6.131,6.132,7.006,6.132,7.006"/>
<path fill="none" stroke="#1D1C4E" d="M231.732,209.287c0,0,3.504,3.066,2.189,9.635s-5.692,7.443-5.692,7.443"/>
<path fill="#E4E3EA" d="M225.163,212.79c-2.189,0-10.073,2.19-11.824,2.628c-1.752,0.438-5.693,4.381-8.32,3.941
	c-2.628-0.439-7.008-3.504-8.76-3.941c-1.751-0.438-10.948,0.876-12.262,0s-0.876-5.255,0-6.131s3.503-5.693,3.503-5.693
	l-6.131,2.189c0,0-3.065,7.883-3.065,12.699s3.065,7.443,3.065,7.443s6.131-3.063,8.32-3.063c2.19,0,13.14,3.941,15.329,3.941
	c2.188,0,8.757-1.754,10.947-2.189c1.061-0.213,3.246-1.898,5.221-3.268l-1.276,0.641h-7.885l2.627-2.629
	c1.313-1.313,10.511-3.941,10.511-3.941v3.941l-0.425,0.213c0.271,0.047,0.425,0.25,0.425,0.664c0,2.803,4.381,3.793,6.568,4.379
	l2.189-3.941v-5.693C233.923,214.98,227.353,212.79,225.163,212.79z M188.376,221.111l-2.627-2.629c0,0,6.568-1.752,9.196,0
	l4.817,5.256L188.376,221.111z"/>
<path fill="#1D1C4E" d="M161.223,173.375c3.941,0,7.007-2.627,7.007-6.131c0-3.503-3.065-6.131-7.007-6.131
	c-3.94,0-7.444,2.189-7.444,6.131C153.779,171.186,157.282,173.375,161.223,173.375z"/>
<path fill="none" stroke="#1D1C4E" stroke-width="2" d="M231.296,165.055c0,0,6.566-7.446,17.52-7.884
	c10.945-0.438,20.582,7.007,20.582,7.007"/>
<path fill="#1D1C4E" d="M250.564,169.872c3.939,0,7.006-2.628,7.006-6.131s-3.064-6.131-7.006-6.131s-7.443,2.19-7.443,6.131
	C243.12,167.682,246.622,169.872,250.564,169.872z"/>
</svg>
